<?xml version="1.0" standalone="no"?>
<!DOCTYPE svg PUBLIC "-//W3C//DTD SVG 20010904//EN"
 "http://www.w3.org/TR/2001/REC-SVG-20010904/DTD/svg10.dtd">
<svg version="1.0" xmlns="http://www.w3.org/2000/svg"
 width="520.000000pt" height="520.000000pt" viewBox="0 0 520.000000 520.000000"
 preserveAspectRatio="xMidYMid meet">
<metadata>
Created by potrace 1.14, written by Peter Selinger 2001-2017
</metadata>
<g transform="translate(0.000000,520.000000) scale(0.100000,-0.100000)"
fill="#000000" stroke="none">
<path d="M4338 5065 c-2 -2 -17 -6 -33 -9 -175 -29 -355 -58 -378 -61 -64 -9
-112 -17 -117 -20 -3 -1 -32 -6 -65 -10 -32 -3 -62 -8 -65 -10 -3 -1 -27 -6
-55 -9 -51 -7 -344 -55 -495 -81 -47 -8 -103 -17 -125 -20 -22 -4 -78 -12
-125 -20 -47 -8 -103 -16 -125 -20 -22 -3 -80 -12 -130 -21 -49 -8 -102 -17
-117 -20 -16 -2 -40 -6 -55 -9 -25 -4 -483 -78 -550 -89 -16 -3 -71 -12 -123
-20 -52 -9 -113 -18 -135 -22 -22 -3 -89 -14 -150 -25 -105 -18 -126 -21 -220
-34 -22 -3 -53 -8 -70 -12 -16 -3 -39 -7 -50 -9 -45 -6 -101 -15 -120 -19 -11
-2 -105 -18 -210 -34 -104 -17 -199 -32 -210 -35 -17 -3 -60 -10 -140 -21 -11
-2 -47 -8 -80 -14 -33 -6 -73 -12 -90 -15 -128 -19 -157 -24 -161 -29 -2 -2 3
-44 12 -93 8 -49 17 -100 19 -114 7 -50 17 -116 21 -135 2 -11 7 -40 10 -65 3
-25 8 -54 10 -65 3 -11 7 -36 10 -55 3 -19 16 -102 30 -185 14 -82 27 -161 29
-175 2 -14 11 -70 20 -125 9 -55 18 -112 21 -127 2 -16 7 -43 10 -60 3 -18 7
-46 9 -63 3 -16 24 -151 49 -300 24 -148 47 -288 50 -310 13 -84 66 -412 75
-460 6 -27 13 -70 17 -95 3 -25 8 -54 10 -65 2 -11 6 -40 9 -64 3 -24 7 -46 9
-50 2 -3 7 -30 10 -59 3 -29 8 -63 11 -75 4 -22 14 -79 21 -129 2 -15 17 -107
33 -205 33 -197 36 -219 51 -313 5 -36 12 -78 15 -95 3 -16 7 -43 10 -60 3
-16 7 -39 9 -50 2 -11 7 -42 10 -70 4 -27 9 -57 11 -65 2 -8 6 -33 10 -55 10
-68 64 -397 70 -425 2 -8 4 -18 4 -22 1 -4 8 -5 16 -2 10 4 15 0 15 -15 0 -17
6 -21 33 -21 17 0 50 4 72 9 22 5 58 12 80 15 52 8 65 10 350 56 132 21 256
41 275 44 34 6 53 9 130 22 56 10 73 12 117 18 22 3 52 7 65 10 12 3 39 8 58
11 19 2 46 7 60 9 23 5 312 51 385 62 17 3 57 10 90 15 33 6 72 13 88 15 46 7
77 12 212 34 72 11 146 23 165 26 19 3 85 14 147 25 61 10 130 21 154 24 23 3
45 7 48 9 3 2 31 7 62 10 31 4 67 9 80 11 38 8 67 13 174 30 105 17 126 20
215 35 30 5 71 11 90 14 19 3 45 8 57 10 11 3 43 8 70 12 26 3 55 8 65 10 9 1
38 6 65 10 26 3 57 8 68 10 11 2 49 9 85 15 36 5 172 28 302 49 130 22 256 42
280 45 24 3 56 8 71 11 33 7 34 -3 -8 244 -18 104 -17 100 -40 245 -9 55 -18
111 -20 125 -3 14 -7 45 -11 70 -3 25 -7 52 -10 61 -3 9 -7 32 -9 50 -2 19
-20 129 -39 244 -19 116 -40 242 -46 280 -12 78 -17 109 -26 158 -3 17 -7 43
-9 57 -2 14 -15 97 -30 185 -14 88 -28 176 -31 195 -2 19 -6 42 -9 50 -2 8 -7
35 -10 60 -3 25 -10 70 -15 100 -5 30 -12 69 -14 85 -14 89 -47 289 -57 350
-6 39 -13 79 -14 90 -2 11 -13 79 -25 150 -23 135 -24 140 -34 215 -4 25 -8
52 -10 60 -8 39 -19 104 -56 335 -22 138 -42 261 -45 275 -3 14 -8 50 -11 80
-3 30 -7 57 -9 60 -2 3 -6 26 -10 50 -3 25 -13 86 -21 135 -9 50 -18 110 -21
134 -8 67 -18 96 -33 96 -7 0 -16 9 -20 19 -6 17 -33 30 -42 21z"/>
</g>
</svg>
